# xmcd
#
# Track frame offsets:
#	182
#	56425
#	105715
#	163185
#
# Disc length: 3039 seconds
#
# Revision: 33
# Processed by: cddbd v1.5.2PL0 Copyright (c) Steve Scherf et al.
# Submitted via: audiograbber 1.83.01
#
DISCID=2d0bdd04
DTITLE=Led Zeppelin - The Soundtrack From The Film The Song Remains The Same, D
DTITLE=isc 2
DYEAR=1976
DGENRE=Rock and Roll
TTITLE0=No Quarter
TTITLE1=Stairway To Heaven
TTITLE2=Moby Dick
TTITLE3=Whole Lotta Love
EXTD=Year: 1976\n\n\n\n\n\n             The Soundtrack from the Film "The Song 
EXTD=Remains The Same" [CD
EXTT0=
EXTT1=
EXTT2=
EXTT3=
PLAYORDER=
